<svg xmlns="http://www.w3.org/2000/svg" width="20" height="20" viewBox="0 0 20 20">
    <path
        d="M18.9524 12.1164C18.8442 11.7888 18.5608 11.5605 18.1943 11.5058C18.0214 11.48 17.8235 11.491 17.5893 11.5393C17.1811 11.6235 16.8782 11.6556 16.6572 11.6618C17.4915 10.2532 18.1699 8.64691 18.5604 7.13488C19.1919 4.68995 18.8545 3.57613 18.4601 3.07233C17.4165 1.73882 15.8939 1.02245 14.057 1.00053C13.0771 0.988549 12.2169 1.18202 11.7681 1.32115C11.3503 1.24743 10.9011 1.20627 10.4297 1.19865C9.54606 1.18456 8.76534 1.37718 8.09823 1.77308C7.72891 1.64818 7.13616 1.47212 6.45165 1.35977C4.84171 1.09547 3.54415 1.30142 2.59505 1.9719C1.44578 2.78371 0.913008 4.19418 1.01154 6.16414C1.04283 6.78959 1.3927 8.69258 1.94359 10.4973C2.26019 11.5347 2.5978 12.3961 2.94703 13.0579C3.4423 13.9964 3.97225 14.549 4.56719 14.7475C4.90063 14.8586 5.50649 14.9364 6.14371 14.4057C6.22448 14.5035 6.33225 14.6007 6.47526 14.691C6.65689 14.8055 6.87897 14.8991 7.10078 14.9546C7.90011 15.1544 8.64883 15.1044 9.28761 14.8243C9.29155 14.9379 9.29458 15.0465 9.29712 15.1402C9.30135 15.2922 9.30558 15.4413 9.31115 15.5807C9.349 16.5233 9.41313 17.2563 9.60315 17.7691C9.61358 17.7973 9.62761 17.8403 9.64241 17.8859C9.73721 18.1761 9.89572 18.662 10.299 19.0426C10.7166 19.4368 11.2218 19.5576 11.6844 19.5576C11.9164 19.5576 12.1378 19.5272 12.332 19.4856C13.0241 19.3372 13.8102 19.1113 14.3788 18.3016C14.9165 17.5362 15.1778 16.3833 15.2251 14.5668C15.2312 14.5154 15.2369 14.4663 15.2423 14.4196L15.2536 14.3236L15.3802 14.3348L15.4129 14.3369C16.1178 14.3691 16.9798 14.2196 17.5092 13.9737C17.9275 13.7796 19.268 13.0719 18.9524 12.1164Z"
        fill="black"
    />
    <path
        d="M17.7471 12.3022C15.651 12.7346 15.5069 12.0249 15.5069 12.0249C17.72 8.74101 18.6452 4.57253 17.8468 3.55231C15.6687 0.769353 11.8983 2.08552 11.8354 2.11964L11.8151 2.1233C11.401 2.03731 10.9376 1.98614 10.4166 1.97762C9.46823 1.96211 8.74876 2.22627 8.20281 2.64028C8.20281 2.64028 1.47677 -0.130624 1.78964 6.12516C1.85617 7.45599 3.69715 16.195 5.89292 13.5555C6.6955 12.5902 7.471 11.7741 7.471 11.7741C7.85611 12.03 8.3172 12.1605 8.80056 12.1136L8.83813 12.0818C8.82643 12.2016 8.83179 12.3188 8.85314 12.4576C8.28746 13.0896 8.45372 13.2005 7.32292 13.4333C6.17865 13.6691 6.85084 14.0889 7.28972 14.1987C7.82179 14.3317 9.05267 14.5202 9.88435 13.3559L9.85123 13.4888C10.0728 13.6663 10.2284 14.6435 10.2024 15.5294C10.1763 16.4152 10.1589 17.0233 10.3335 17.4984C10.5082 17.9734 10.6822 19.0423 12.1688 18.7238C13.4109 18.4576 14.0546 17.7678 14.1442 16.6171C14.2077 15.7991 14.3515 15.92 14.3606 15.1886L14.4759 14.8424C14.6089 13.7336 14.4971 13.3758 15.2623 13.5422L15.4484 13.5586C16.0115 13.5841 16.7487 13.4679 17.1814 13.2668C18.1131 12.8345 18.6656 12.1126 17.747 12.3022H17.7471Z"
        fill="#336791"
    />
    <path
        d="M8.59627 6.72033C8.40738 6.69404 8.23633 6.71836 8.14977 6.78391C8.10114 6.82077 8.08606 6.86348 8.08197 6.89287C8.07112 6.97075 8.12567 7.05688 8.15922 7.10128C8.25409 7.22702 8.39265 7.31343 8.52981 7.33246C8.54969 7.33528 8.56949 7.33655 8.58916 7.33655C8.81787 7.33655 9.02586 7.15844 9.04418 7.027C9.06709 6.86235 8.82809 6.75254 8.59627 6.72033ZM14.8539 6.72555C14.8358 6.5965 14.6062 6.5597 14.3883 6.59001C14.1706 6.62032 13.9596 6.71857 13.9772 6.8479C13.9913 6.94848 14.173 7.12017 14.3879 7.12017C14.4061 7.12017 14.4244 7.11897 14.4429 7.11637C14.5864 7.09649 14.6917 7.00536 14.7418 6.95285C14.8179 6.87278 14.862 6.78355 14.8539 6.72555Z"
        fill="white"
    />
    <path
        d="M18.4445 12.2531C18.3646 12.0114 18.1073 11.9336 17.6799 12.0219C16.4109 12.2838 15.9564 12.1024 15.8072 11.9925C16.7936 10.4898 17.6051 8.67339 18.0428 6.97866C18.2502 6.17588 18.3647 5.43033 18.3741 4.82264C18.3845 4.15567 18.2708 3.66555 18.0366 3.36614C17.092 2.15915 15.7056 1.51171 14.0274 1.49394C12.8737 1.48098 11.899 1.77622 11.71 1.85925C11.3121 1.76029 10.8783 1.69954 10.406 1.69179C9.53989 1.67776 8.79124 1.88512 8.17143 2.30779C7.90219 2.20757 7.2064 1.96871 6.35547 1.83162C4.88439 1.5948 3.71538 1.77425 2.88116 2.36524C1.88576 3.07047 1.42622 4.3311 1.51524 6.11202C1.54519 6.71119 1.8866 8.55442 2.42536 10.3196C3.13455 12.643 3.90547 13.9582 4.71657 14.2288C4.81151 14.2604 4.92097 14.2826 5.0417 14.2826C5.33758 14.2826 5.70035 14.1492 6.07778 13.6955C6.53813 13.1432 7.01434 12.6044 7.5058 12.0796C7.82466 12.2507 8.17495 12.3463 8.53321 12.3559C8.53391 12.3653 8.53483 12.3746 8.53567 12.384C8.474 12.4575 8.41362 12.5321 8.35454 12.6077C8.1063 12.9229 8.05464 12.9885 7.25559 13.153C7.02829 13.1999 6.42462 13.3243 6.41574 13.7475C6.40615 14.2098 7.12936 14.404 7.21175 14.4246C7.49889 14.4965 7.77553 14.5319 8.03934 14.5319C8.68094 14.5319 9.24556 14.3211 9.69678 13.913C9.6829 15.5613 9.75162 17.1855 9.94953 17.6803C10.1116 18.0855 10.5076 19.0755 11.7584 19.0755C11.9419 19.0755 12.1439 19.0541 12.3661 19.0065C13.6715 18.7266 14.2384 18.1497 14.4577 16.8777C14.575 16.1979 14.7764 14.5747 14.8711 13.7039C15.071 13.7663 15.3283 13.7948 15.6065 13.7948C16.1867 13.7948 16.8562 13.6715 17.2761 13.4766C17.7477 13.2576 18.5989 12.7201 18.4445 12.2531ZM15.3359 6.36928C15.3316 6.62633 15.2962 6.85969 15.2587 7.10327C15.2183 7.36525 15.1766 7.63611 15.1661 7.96491C15.1557 8.28489 15.1957 8.61757 15.2343 8.93931C15.3124 9.58915 15.3925 10.2582 15.0823 10.9183C15.0308 10.827 14.9849 10.7326 14.9449 10.6357C14.9063 10.5423 14.8226 10.3921 14.7067 10.1844C14.2557 9.37552 13.1995 7.48141 13.7402 6.70851C13.9012 6.47846 14.3099 6.24192 15.3359 6.36928ZM14.0923 2.01445C15.5959 2.04765 16.7854 2.61016 17.6275 3.68627C18.2734 4.51167 17.5622 8.26742 15.5032 11.5075C15.4825 11.4812 15.4617 11.4549 15.4407 11.4288L15.4147 11.3962C15.9467 10.5175 15.8427 9.64814 15.7501 8.87736C15.712 8.56104 15.6761 8.26227 15.6852 7.98161C15.6947 7.68418 15.734 7.42904 15.7721 7.18235C15.8188 6.87837 15.8664 6.56381 15.8533 6.19301C15.8631 6.1541 15.867 6.10815 15.8619 6.0536C15.8284 5.69802 15.4224 4.63382 14.595 3.67062C14.1423 3.14377 13.4823 2.5542 12.581 2.15654C12.9687 2.07619 13.4988 2.00127 14.0923 2.01445ZM5.67836 13.3634C5.26252 13.8634 4.97538 13.7675 4.88093 13.7361C4.26563 13.5308 3.55165 12.2303 2.92218 10.168C2.3775 8.38357 2.05921 6.58918 2.03398 6.08602C1.95448 4.49469 2.34022 3.38566 3.18057 2.78967C4.54819 1.81985 6.79669 2.40033 7.70019 2.69474C7.68722 2.70756 7.67369 2.71955 7.66086 2.73258C6.17821 4.22989 6.21338 6.78808 6.21705 6.94448C6.21691 7.00481 6.22198 7.09024 6.22889 7.20773C6.2544 7.63802 6.30191 8.43883 6.17504 9.34571C6.0572 10.1885 6.31699 11.0133 6.88768 11.6088C6.94625 11.6698 7.00781 11.7278 7.07213 11.7827C6.81811 12.0548 6.26603 12.6564 5.67836 13.3634ZM7.26271 11.2494C6.80275 10.7694 6.59384 10.1018 6.68948 9.4176C6.8234 8.45962 6.77399 7.62526 6.74742 7.177C6.74369 7.11427 6.74037 7.05929 6.73847 7.01595C6.95506 6.82389 7.95878 6.28611 8.67459 6.45012C9.0012 6.5249 9.20024 6.74734 9.28299 7.12992C9.71123 9.11065 9.33965 9.9362 9.0411 10.5996C8.97957 10.7363 8.92142 10.8655 8.8718 10.9991L8.83332 11.1025C8.73591 11.3637 8.64527 11.6065 8.5891 11.8372C8.1001 11.8357 7.62442 11.6268 7.26271 11.2493V11.2494ZM7.33777 13.9207C7.19498 13.885 7.06656 13.823 6.99122 13.7717C7.05416 13.7421 7.16615 13.7017 7.3604 13.6617C8.30041 13.4682 8.4456 13.3316 8.76262 12.9291C8.83529 12.8368 8.91768 12.7322 9.03179 12.6048L9.03193 12.6046C9.20186 12.4143 9.2796 12.4466 9.42057 12.5051C9.53482 12.5523 9.64611 12.6955 9.69122 12.8531C9.71257 12.9276 9.73654 13.0688 9.65809 13.1788C8.99585 14.106 8.03082 14.0941 7.33777 13.9207ZM12.2573 18.4986C11.1073 18.745 10.7002 18.1582 10.4318 17.4874C10.2587 17.0544 10.1735 15.1016 10.2339 12.9451C10.2347 12.9164 10.2306 12.8887 10.2227 12.8627C10.2157 12.8112 10.2049 12.7602 10.1906 12.7103C10.1008 12.3965 9.88194 12.134 9.6194 12.0252C9.51508 11.982 9.32366 11.9027 9.0936 11.9616C9.14266 11.7594 9.22773 11.5311 9.31999 11.2839L9.35869 11.18C9.40224 11.0628 9.45694 10.9413 9.51473 10.8128C9.82718 10.1187 10.2551 9.16796 9.79066 7.02018C9.61672 6.2157 9.03581 5.82284 8.15522 5.91411C7.62731 5.96874 7.1443 6.18173 6.9034 6.30387C6.85159 6.33009 6.80423 6.35547 6.75997 6.38014C6.82721 5.5696 7.08122 4.05481 8.03145 3.09641C8.62977 2.49309 9.42656 2.19509 10.3974 2.21116C12.3102 2.24246 13.5369 3.22412 14.2292 4.0422C14.8257 4.74708 15.1487 5.45718 15.2776 5.84018C14.3082 5.74157 13.6488 5.93293 13.3146 6.4108C12.5874 7.45025 13.7124 9.46771 14.2531 10.4373C14.3522 10.615 14.4378 10.7686 14.4647 10.8339C14.6408 11.2605 14.8687 11.5454 15.0351 11.7534C15.0861 11.8171 15.1356 11.8789 15.1733 11.9329C14.8796 12.0175 14.3522 12.2131 14.4003 13.1908C14.3615 13.6813 14.0859 15.978 13.9458 16.7895C13.761 17.8615 13.3665 18.2608 12.2573 18.4986V18.4986ZM17.0574 13.0055C16.7571 13.1449 16.2547 13.2494 15.7774 13.2719C15.2502 13.2965 14.9818 13.2128 14.9186 13.1613C14.889 12.552 15.1157 12.4884 15.3557 12.421C15.3934 12.4105 15.4302 12.4001 15.4658 12.3877C15.4878 12.4057 15.512 12.4235 15.5385 12.441C15.9622 12.7206 16.718 12.7508 17.785 12.5306L17.7967 12.5282C17.6528 12.6628 17.4065 12.8433 17.0574 13.0055Z"
        fill="white"
    />
</svg>
