<svg width="20" height="20" viewBox="0 0 20 20" fill="none" xmlns="http://www.w3.org/2000/svg">
<path d="M3.5 7C2.67188 7 2 7.61589 2 8.375C2 8.80755 2.22188 9.21432 2.6 9.475L9.4 14.15C9.75625 14.3935 10.2438 14.3935 10.6 14.15L17.4 9.475C17.7781 9.21432 18 8.80755 18 8.375C18 7.61589 17.3281 7 16.5 7H3.5ZM2 10.2083V16.1667C2 17.1779 2.89688 18 4 18H16C17.1031 18 18 17.1779 18 16.1667V10.2083L11.2 14.8833C10.4875 15.3732 9.5125 15.3732 8.8 14.8833L2 10.2083Z" fill="#F5E6AB"/>
<path d="M12 9C12 9.55228 11.5523 10 11 10L9 10C8.44772 10 8 9.55229 8 9L8 6L6.8151 6C6.35534 6 6.13929 5.43174 6.48292 5.1263L9.33564 2.59055C9.71452 2.25376 10.2855 2.25376 10.6644 2.59055L13.5171 5.1263C13.8607 5.43174 13.6447 6 13.1849 6L12 6L12 9Z" fill="#F3CE39"/>
</svg>
