<svg width="20" height="20" viewBox="0 0 20 20" fill="none" xmlns="http://www.w3.org/2000/svg">
<path d="M10.0092 4.49219C9.78082 4.49219 9.55239 4.53909 9.32397 4.63289C9.09555 4.72669 8.89064 4.86404 8.70925 5.04494C8.52785 5.22584 8.39685 5.43689 8.31623 5.67809C8.20873 5.94609 8.18186 6.24089 8.23561 6.56249C8.27592 6.80369 8.36997 7.03149 8.51778 7.24589C8.66558 7.46029 8.85369 7.62779 9.08211 7.74839C9.40459 7.94939 9.78082 8.03649 10.2108 8.00969C10.2511 8.06329 10.2847 8.11689 10.3116 8.17049L12.5689 12.0096C12.6092 12.09 12.6495 12.1503 12.6898 12.1905C13.0526 11.8421 13.4456 11.6042 13.8689 11.4769C14.2922 11.3496 14.7288 11.3262 15.179 11.4066C15.6291 11.487 16.0221 11.6612 16.358 11.9292C16.788 12.2642 17.0802 12.6762 17.2348 13.1653C17.3893 13.6544 17.3926 14.1469 17.2448 14.6427C17.1374 15.0179 16.9459 15.3529 16.6704 15.6477C16.395 15.9425 16.0691 16.1636 15.6929 16.311C15.2764 16.4852 14.8296 16.5421 14.3526 16.4818C13.8756 16.4215 13.449 16.2574 13.0728 15.9894C13.019 15.9492 12.9317 15.8822 12.8108 15.7884L12.71 15.6678C12.6562 15.708 12.5823 15.775 12.4883 15.8688L11.541 16.7934C11.8501 17.1016 12.1994 17.3595 12.5891 17.5672C12.9787 17.7749 13.3885 17.919 13.8185 17.9994L14.2619 18.0798H15.048L15.6123 17.9793C16.4722 17.8051 17.2113 17.4031 17.8293 16.7733C18.1249 16.4785 18.3702 16.1401 18.565 15.7582C18.7598 15.3763 18.8908 14.9777 18.958 14.5623C19.0252 14.0799 19.0118 13.6008 18.9177 13.1251C18.8236 12.6494 18.6557 12.2173 18.4138 11.8287C18.172 11.4401 17.8764 11.0984 17.527 10.8036C17.1777 10.5088 16.7947 10.2743 16.3782 10.1001C15.9213 9.91249 15.4477 9.80529 14.9573 9.77849C14.4668 9.75169 13.9865 9.79859 13.5162 9.91919L13.1736 10.0197L11.541 7.26599C11.7157 7.01139 11.8232 6.76349 11.8635 6.52229C11.9307 6.09349 11.8433 5.69149 11.6015 5.31629C11.3865 4.98129 11.0909 4.74679 10.7147 4.61279C10.4862 4.53239 10.2511 4.49219 10.0092 4.49219ZM4.32556 9.79859C3.54623 9.97279 2.87441 10.3279 2.31007 10.8639C1.67855 11.4535 1.26873 12.157 1.08062 12.9744L1 13.4568V14.2005L1.04031 14.4216C1.06718 14.5958 1.09406 14.7298 1.12093 14.8236C1.21499 15.239 1.37958 15.6343 1.61472 16.0095C1.84986 16.3847 2.13539 16.713 2.47131 16.9944C3.14314 17.5438 3.91574 17.8721 4.78912 17.9793C5.29971 18.0329 5.8103 18.0027 6.32089 17.8888C6.83148 17.7749 7.30176 17.584 7.73173 17.316C8.44387 16.8604 8.9679 16.2507 9.30382 15.4869C9.39787 15.2591 9.49193 14.9576 9.58598 14.5824C9.6666 14.569 9.78753 14.569 9.94877 14.5824L12.4681 14.6226C12.6562 14.6226 12.7906 14.6293 12.8712 14.6427C13.019 14.9107 13.187 15.1184 13.3751 15.2658C13.5632 15.4132 13.7748 15.5204 14.01 15.5874C14.2451 15.6544 14.4836 15.6812 14.7255 15.6678C15.1017 15.6276 15.4376 15.4936 15.7332 15.2658C16.096 14.9844 16.311 14.6226 16.3782 14.1804C16.4051 13.9526 16.395 13.7315 16.348 13.5171C16.3009 13.3027 16.2102 13.1017 16.0759 12.9141C15.8609 12.6193 15.5854 12.4049 15.2495 12.2709C15.0211 12.1771 14.7826 12.1335 14.534 12.1402C14.2854 12.1469 14.0469 12.1972 13.8185 12.291C13.4423 12.4518 13.1534 12.6997 12.9519 13.0347L12.8914 13.1553C12.7033 13.1553 12.4211 13.1486 12.0449 13.1352L9.76738 13.1151C9.56583 13.1017 9.27694 13.095 8.90072 13.095L7.89297 13.0749L7.95344 13.4166C8.06093 13.9928 7.97359 14.5355 7.69142 15.0447C7.50331 15.4065 7.23458 15.708 6.88523 15.9492C6.53588 16.1904 6.15293 16.3378 5.7364 16.3914C5.26612 16.4718 4.79584 16.4215 4.32556 16.2406C3.85528 16.0597 3.47233 15.775 3.17673 15.3864C2.8005 14.9174 2.61911 14.3881 2.63255 13.7985C2.64598 13.3027 2.8005 12.8404 3.09611 12.4116C3.27078 12.157 3.48577 11.9426 3.74107 11.7684C3.99636 11.5942 4.27181 11.4669 4.56742 11.3865L4.74881 11.3262L4.32556 9.79859Z" fill="#4A4A4A"/>
<path d="M9.62607 2H9.64623H10.392L10.6741 2.0402C10.8354 2.067 10.9563 2.0938 11.0369 2.1206C11.8565 2.3082 12.5485 2.6834 13.1129 3.2462C13.4353 3.5544 13.7007 3.91285 13.909 4.32155C14.1173 4.73025 14.2483 5.1557 14.302 5.5979C14.3961 6.1741 14.349 6.7503 14.1609 7.3265L13.9997 7.3064L12.5888 6.9245C12.6695 6.5895 12.7098 6.3081 12.7098 6.0803C12.6963 5.7721 12.6258 5.46725 12.4981 5.16575C12.3705 4.86425 12.1925 4.6063 11.964 4.3919C11.7087 4.1239 11.4098 3.91955 11.0671 3.77885C10.7245 3.63815 10.3718 3.5745 10.009 3.5879C9.40437 3.5879 8.85347 3.7688 8.35631 4.1306C8.11446 4.3182 7.90619 4.546 7.73151 4.814C7.55684 5.082 7.44263 5.3701 7.38888 5.6783C7.28139 6.2009 7.34185 6.7034 7.57027 7.1858C7.70464 7.4806 7.89611 7.74525 8.14469 7.97975C8.39327 8.21425 8.67207 8.3985 8.98112 8.5325C9.03486 8.5593 9.1222 8.5861 9.24313 8.6129L9.44468 8.6732C9.41781 8.7402 9.36406 8.834 9.28344 8.9546L6.90516 12.8138L6.96563 12.9344C7.04625 13.055 7.09327 13.1488 7.10671 13.2158C7.2142 13.4704 7.25115 13.7451 7.21756 14.0399C7.18397 14.3347 7.08656 14.596 6.92532 14.8238C6.77751 15.0248 6.59276 15.1923 6.37106 15.3263C6.14935 15.4603 5.91757 15.5441 5.67571 15.5775C5.43385 15.6111 5.192 15.5977 4.95014 15.5374C4.70828 15.4771 4.48657 15.3799 4.28503 15.2459C3.94911 15.0047 3.72741 14.6831 3.61991 14.2811C3.50705 13.834 3.51975 13.4478 3.761 13.0148C3.96255 12.653 4.26487 12.385 4.66797 12.2108C4.92326 12.1036 5.22559 12.0567 5.57494 12.0701L7.24779 9.3566L6.98578 9.1154C6.5155 8.6732 6.16615 8.1506 5.93773 7.5476C5.78992 7.1456 5.7093 6.7235 5.69587 6.2813C5.68243 5.8391 5.73618 5.417 5.85711 5.015C6.07209 4.2914 6.45504 3.6817 7.00594 3.1859C7.32841 2.8643 7.70128 2.60635 8.12453 2.41205C8.54779 2.21775 8.98112 2.0938 9.42452 2.0402L9.62607 2Z" fill="#C93762"/>
</svg>
