<svg xmlns="http://www.w3.org/2000/svg" width="20" height="20" viewBox="0 0 20 20">
    <path
        d="M15.3206 7.74164C15.0563 7.74164 14.8078 7.84403 14.6217 8.03002L13.8701 8.77968C13.6673 8.98192 13.5631 9.26273 13.5845 9.55061C13.586 9.56633 13.5875 9.58204 13.589 9.59826C13.616 9.81925 13.713 10.0184 13.8701 10.1746C13.9783 10.2825 14.0978 10.351 14.2426 10.3986C14.2502 10.4422 14.2543 10.4863 14.2543 10.5304C14.2543 10.7291 14.1771 10.9156 14.0368 11.0555L13.9905 11.1016C13.7395 11.0159 13.5301 10.8908 13.341 10.7022C13.0899 10.4518 12.9238 10.1355 12.8612 9.78834L12.8526 9.74017L12.8145 9.7711C12.7886 9.79188 12.7642 9.81419 12.7413 9.83698L11.9896 10.5866C11.6044 10.9708 11.6044 11.5968 11.9896 11.981C12.1822 12.1731 12.4353 12.2694 12.6889 12.2694C12.9426 12.2694 13.1952 12.1731 13.3878 11.981L14.1394 11.2314C14.5247 10.8472 14.5247 10.2217 14.1394 9.83698C14.0368 9.73462 13.9143 9.65756 13.7756 9.6079C13.7679 9.56277 13.7638 9.51766 13.7638 9.47358C13.7638 9.25765 13.8492 9.05287 14.0058 8.89676C14.2574 8.98242 14.4805 9.12131 14.669 9.30935C14.9196 9.55923 15.0853 9.87501 15.1488 10.2232L15.1574 10.2714L15.1956 10.2405C15.2215 10.2197 15.2459 10.1974 15.2692 10.1741L16.0209 9.42442C16.4062 9.0402 16.4067 8.41424 16.0209 8.03002C15.8344 7.84403 15.5864 7.74164 15.3216 7.74164H15.3206Z"
        fill="#CFC8FE"
    />
    <path
        d="M14.9177 5H5.08233C2.27993 5 0 7.27378 0 10.0686C0 12.8634 2.27993 15.1372 5.08233 15.1372H14.9177C17.7201 15.1372 20 12.8634 20 10.0686C20 7.27378 17.7201 5 14.9177 5ZM10.0666 12.9466C9.90445 12.98 9.72199 12.9861 9.59798 12.8569C9.55223 12.9618 9.44551 12.9065 9.36317 12.8929C9.35555 12.9141 9.34895 12.9329 9.34183 12.9542C9.06789 12.9724 8.86257 12.6937 8.73196 12.4833C8.47274 12.3434 8.17848 12.2583 7.91369 12.1118C7.89844 12.353 7.95132 12.6521 7.72107 12.8077C7.70938 13.2715 8.42448 12.8624 8.49003 13.2081C8.43922 13.2137 8.38281 13.2 8.34214 13.239C8.15562 13.42 7.94166 13.1022 7.72667 13.2335C7.43799 13.3784 7.40902 13.497 7.05172 13.5269C7.03192 13.497 7.04004 13.4772 7.05681 13.459C7.15745 13.3424 7.16457 13.2051 7.33635 13.1554C7.15949 13.1275 7.01158 13.2248 6.86267 13.3019C6.66902 13.381 6.67057 13.1235 6.37275 13.3155C6.3397 13.2887 6.35546 13.2644 6.37426 13.2436C6.44998 13.1513 6.5496 13.1376 6.66193 13.1427C6.10947 12.8356 5.84925 13.5183 5.59412 13.1787C5.51738 13.199 5.48842 13.2679 5.44013 13.3166C5.39846 13.271 5.42997 13.2157 5.43201 13.162C5.3822 13.1387 5.31916 13.1275 5.3339 13.0479C5.23632 13.015 5.16823 13.0728 5.09556 13.1275C5.02998 13.0768 5.13976 13.0028 5.16009 12.9501C5.21854 12.8487 5.35169 12.9293 5.41928 12.8563C5.6114 12.7474 5.87924 12.9243 6.09881 12.8944C6.26804 12.9156 6.47742 12.7423 6.39255 12.5694C6.21163 12.3388 6.24363 12.0373 6.23957 11.7615C6.21721 11.6008 5.83045 11.3961 5.71865 11.2227C5.5804 11.0666 5.47265 10.8857 5.36491 10.7078C4.97611 9.95709 5.0986 8.99254 4.60865 8.29561C4.38706 8.41777 4.09838 8.35999 3.90731 8.19626C3.80412 8.29003 3.79954 8.41269 3.79142 8.54297C3.54391 8.29613 3.57491 7.82979 3.77262 7.55508C3.85343 7.44662 3.94999 7.35741 4.05774 7.27885C4.08212 7.26111 4.09026 7.24387 4.08974 7.2165C4.28542 6.33862 5.62005 6.50791 6.04187 7.12983C6.34784 7.51252 6.44034 8.01885 6.78745 8.37418C7.25451 8.88408 7.78664 9.33315 8.21761 9.876C8.62522 10.3722 8.91644 10.9541 9.17055 11.5405C9.27423 11.7352 9.27526 11.9739 9.42875 12.1401C9.50446 12.2405 9.87446 12.5137 9.79417 12.6105C9.84042 12.7109 10.186 12.8492 10.0661 12.9466H10.0666ZM16.5486 9.95203L15.7969 10.7017C15.5966 10.9014 15.3492 11.0504 15.0808 11.132L15.0671 11.1361L15.062 11.1492C14.9746 11.3794 14.8419 11.5846 14.6671 11.7585L13.9154 12.5081C13.5876 12.8351 13.1516 13.015 12.687 13.015C12.2225 13.015 11.7864 12.8351 11.4586 12.5081C10.7812 11.8325 10.7812 10.7336 11.4586 10.058L12.2103 9.30832C12.4116 9.10761 12.6525 8.96315 12.9254 8.87952L12.9391 8.87546L12.9442 8.86229C13.0316 8.63216 13.1648 8.42639 13.3401 8.251L14.0918 7.50136C14.4196 7.17443 14.8557 6.9945 15.3202 6.9945C15.7847 6.9945 16.2208 7.17443 16.5486 7.50136C16.8764 7.82828 17.0568 8.26318 17.0568 8.72645C17.0568 9.18972 16.8764 9.6251 16.5486 9.95154V9.95203Z"
        fill="#CFC8FE"
    />
    <path
        d="M7.00903 12.0393C6.94296 12.2957 6.92161 12.7321 6.5872 12.7448C6.55976 12.8928 6.68986 12.9486 6.80879 12.9009C6.92619 12.8472 6.98208 12.9435 7.02173 13.0393C7.20317 13.0656 7.47153 12.979 7.48169 12.7646C7.21079 12.609 7.12693 12.313 7.00953 12.0388L7.00903 12.0393Z"
        fill="#CFC8FE"
    />
</svg>
