<svg xmlns="http://www.w3.org/2000/svg" width="20" height="20" viewBox="0 0 20 20">
    <path
        d="M15.7611 8.02501L15.4833 7.38334C16.4083 5.29167 16.3472 5.23056 16.1667 5.04723L15 3.8889L14.8833 3.79167H14.7472C14.675 3.79167 14.4694 3.79167 12.6611 4.60556L12 4.32778C11.1361 2.22223 11.0472 2.22223 10.7972 2.22223H9.13056C8.88056 2.22223 8.78333 2.22223 7.99167 4.35001L7.33333 4.62778C6.11111 4.10556 5.40278 3.84445 5.20833 3.84445H5.05278L3.78056 5.09167C3.58611 5.27223 3.51945 5.33612 4.49722 7.39723L4.21945 8.03612C2.05556 8.86945 2.05556 8.95278 2.05556 9.21112V10.8472C2.05556 11.1028 2.05556 11.1945 4.22778 11.9583L4.50556 12.5945C3.58056 14.6861 3.64167 14.75 3.82222 14.9306L5 16.1111L5.11667 16.2139H5.25556C5.325 16.2139 5.53333 16.2139 7.33889 15.3806L8 15.6583C8.86111 17.7778 8.94722 17.7778 9.2 17.7778H10.8667C11.1222 17.7778 11.2139 17.7778 12.0083 15.65L12.6722 15.3722C13.8861 15.8861 14.5972 16.1472 14.7861 16.1472H14.9444L16.2278 14.8917C16.4111 14.7083 16.475 14.6445 15.5 12.5917L15.7778 11.9528C17.9472 11.1195 17.9472 11.0278 17.9472 10.7778V9.14723C17.9361 8.8889 17.9361 8.80001 15.7611 8.02501ZM10 12.7222C9.4641 12.7113 8.94335 12.5424 8.50305 12.2367C8.06275 11.931 7.7225 11.5021 7.52495 11.0038C7.32741 10.5056 7.28136 9.96004 7.39259 9.43569C7.50382 8.91134 7.76737 8.4315 8.1502 8.05633C8.53302 7.68116 9.01809 7.42735 9.54458 7.32674C10.0711 7.22612 10.6155 7.28318 11.1097 7.49075C11.6039 7.69832 12.0258 8.04717 12.3226 8.49355C12.6193 8.93994 12.7777 9.46399 12.7778 10C12.7697 10.7291 12.4727 11.4253 11.9519 11.9356C11.4311 12.446 10.7291 12.7289 10 12.7222Z"
        fill="#0c8ce9"
    />
</svg>
