<svg width="20" height="20" viewBox="0 0 20 20" fill="none" xmlns="http://www.w3.org/2000/svg">
    <path
        d="M2.29658 8.15756C0.567808 9.8879 0.567808 12.6933 2.29658 14.4235C3.81967 15.948 6.17649 16.1293 7.89797 14.9676L11.7233 18.7963C11.9946 19.0679 12.4346 19.0679 12.706 18.7963C12.9527 18.5493 12.9751 18.1629 12.7732 17.8906L12.706 17.8127L8.91579 14.0183C10.2762 12.2798 10.1565 9.75846 8.55703 8.15756C6.82826 6.42726 4.02536 6.42726 2.29658 8.15756ZM7.57429 13.4399C8.76032 12.2529 8.76032 10.3282 7.57429 9.14113C6.38827 7.95409 4.46534 7.95409 3.27932 9.14113C2.09329 10.3282 2.09329 12.2529 3.27932 13.4399C4.46534 14.627 6.38827 14.627 7.57429 13.4399Z"
        fill="#C93762"
        fill-rule="evenodd"
        clip-rule="evenodd"
    />
    <path
        d="M1.24834 7.9861C2.16071 3.9853 5.73781 1 10.0116 1C14.9758 1 19 5.02781 19 9.99638C19 13.6131 16.8676 16.7314 13.7933 18.1599C13.7634 17.8644 13.6516 17.5684 13.4535 17.3029L13.3416 17.1767L13.1394 16.9754C14.5273 16.3512 15.6954 15.3247 16.4951 14.044L14.0483 14.0448C13.7904 15.1085 13.4309 16.0535 12.9887 16.8253L11.9953 15.8289C12.2478 15.319 12.4711 14.7171 12.6528 14.0439L10.2133 14.0436L10.0708 13.9024L10.181 13.696L10.2968 13.4516C10.4061 13.205 10.4956 12.952 10.5656 12.6951L12.943 12.695C13.081 11.8582 13.1584 10.9494 13.1584 9.99638C13.1584 9.37519 13.1255 8.77279 13.0644 8.19685L9.76328 8.19551C9.59441 7.95894 9.40415 7.73334 9.19251 7.52153C8.93637 7.26518 8.66065 7.0404 8.37019 6.8472L12.8616 6.84787C12.3514 4.2589 11.2527 2.45813 10.1155 2.35402L10.0116 2.34925C8.92101 2.34925 7.85054 3.92962 7.28272 6.29311C6.85641 6.13481 6.4139 6.03298 5.96557 5.98683C6.2388 4.8464 6.62847 3.841 7.11156 3.03723L7.20757 2.88064C5.5066 3.55263 4.10438 4.81796 3.25687 6.42131C2.6781 6.67954 2.13593 7.04629 1.6611 7.52153C1.51283 7.66993 1.37513 7.82491 1.24834 7.9861ZM17.4386 8.1968L14.4212 8.19743C14.4774 8.77963 14.5065 9.3813 14.5065 9.99638C14.5065 10.9346 14.4386 11.8418 14.3107 12.6957L17.1626 12.6949C17.4789 11.8557 17.6519 10.9463 17.6519 9.99638C17.6519 9.38625 17.5806 8.79276 17.4457 8.22392L17.4386 8.1968ZM12.8351 2.88843L12.8146 2.88058C13.4639 3.89888 13.9553 5.27117 14.2369 6.84749L16.9764 6.848C16.1634 5.04908 14.6752 3.62126 12.8351 2.88843Z"
        fill="#4A4A4A"
    />
</svg>
